<?xml version="1.0" encoding="UTF-8" standalone="no"?>
<svg
   version="1.1"
   width="632.48828"
   height="486.345"
   id="svg33"
   viewBox="0 0 632.48828 486.345"
   sodipodi:docname="5e616ff3a3b1d9df6881763008fa9de5.cdr"
   xmlns:inkscape="http://www.inkscape.org/namespaces/inkscape"
   xmlns:sodipodi="http://sodipodi.sourceforge.net/DTD/sodipodi-0.dtd"
   xmlns:xlink="http://www.w3.org/1999/xlink"
   xmlns="http://www.w3.org/2000/svg"
   xmlns:svg="http://www.w3.org/2000/svg">
  <defs
     id="defs37" />
  <sodipodi:namedview
     id="namedview35"
     pagecolor="#ffffff"
     bordercolor="#666666"
     borderopacity="1.0"
     inkscape:pageshadow="2"
     inkscape:pageopacity="0.0"
     inkscape:pagecheckerboard="0" />
  <g
     id="Layer1000"
     transform="translate(-104.6858,-54.6673)">
    <path
       d="M 708.1808,440.0375 627.7423,130.599 h 4.9995 l 80.4385,310.0952 z m -193.319,1.9524 -6.2494,0.9304 103.146,-312.3485 h 5.0087 l -101.504,310.1956 z"
       style="fill:#000000;fill-rule:evenodd"
       id="path2" />
    <path
       d="M 133.6791,440.0375 214.1176,130.599 h -4.9995 l -80.4384,310.0952 z m 193.319,1.9524 6.2494,0.9304 -103.146,-312.3485 h -5.0087 l 101.504,310.1956 z"
       style="fill:#000000;fill-rule:evenodd"
       id="path4" />
    <defs
       id="defs11">
      <radialGradient
         id="grad1"
         cx="748.23547"
         cy="167.45392"
         r="103.43686"
         gradientTransform="scale(0.56222816,1.7786373)"
         fx="748.23547"
         fy="167.45392"
         gradientUnits="userSpaceOnUse">
        <stop
           offset="0%"
           stop-color="#795611"
           stop-opacity="1.0000"
           id="stop6" />
        <stop
           offset="100%"
           stop-color="#97680c"
           stop-opacity="1.0000"
           id="stop8" />
      </radialGradient>
    </defs>
    <path
       d="m 490.0194,525.0012 7.5266,10.7653 -9.5245,5.2458 -1.031,-0.1369 c -44.165,-6.003 -88.3666,-6.003 -132.5317,0 l -0.7207,0.0913 -3.6401,-1.2134 -5.775,-9.4972 8.4298,-6.4683 0.8393,-0.1186 c 5.0907,-0.739 9.7253,-2.299 13.8672,-4.6163 4.151,-2.3355 7.855,-5.4739 11.0481,-9.3695 l 0.0547,-0.0821 c 3.631,-4.1601 6.3589,-8.5027 8.1561,-13.0004 1.779,-4.443 2.6731,-9.0958 2.6731,-13.9402 0.4105,-15.19 0.7025,-30.2523 0.8484,-45.1868 0.1369,-15.0258 0.1643,-30.0425 0.073,-44.9588 -0.3102,-61.4352 -0.301,-122.8065 0,-184.2417 0.0913,-15.3998 0.0639,-31.0186 -0.073,-46.7834 -0.1459,-15.7009 -0.4287,-31.6481 -0.8393,-47.7869 -0.1824,-4.8809 -1.1677,-9.5976 -2.9194,-14.077 -1.7516,-4.5251 -4.3335,-8.8951 -7.6999,-13.0735 -3.3117,-4.1145 -7.0613,-7.3441 -11.2306,-9.6523 -4.1601,-2.3081 -8.7947,-3.7587 -13.8489,-4.3061 l -1.5144,-0.1733 -8.3751,-12.8819 9.7527,-4.2787 0.8758,0.1186 c 10.8656,1.3867 21.8772,2.445 33.0075,3.1475 10.9933,0.6933 22.1144,1.0491 33.272,1.0491 11.1394,0 22.2422,-0.4014 33.2538,-1.2042 11.039,-0.7937 22.0506,-1.998 32.971,-3.5945 l 0.7299,-0.1095 3.6675,1.2042 5.7567,9.4972 -8.3659,6.4318 -0.7208,0.146 c -4.9447,0.9397 -9.5245,2.6366 -13.6938,5.0724 -4.1693,2.445 -7.9918,5.6564 -11.4221,9.6158 -3.6584,3.996 -6.3771,8.22 -8.1652,12.7085 -1.7791,4.4521 -2.6731,9.2053 -2.6731,14.2504 v 369.0671 c 0,5.0634 0.8667,9.8256 2.6001,14.2777 1.7425,4.4612 4.3882,8.7035 7.9097,12.6447 3.5307,3.9594 7.4171,7.1252 11.632,9.4698 4.1875,2.3173 8.7673,3.8773 13.6847,4.6163 z"
       style="fill:url(#grad1)"
       id="path13" />
    <g
       id="Layer1001">
      <path
         d="M 420.6681,336.9244 232.2032,115.4201 c -6.1212,-6.1034 -25.9065,-4.5632 -25.5602,12.0866 0,103.4275 0,206.8631 0,310.2906 h 35.8144 V 178.3587 l 178.1822,207.9856 z m 0,49.4566 178.1821,-207.9856 V 437.834 h 35.8145 c 0,-103.4275 0,-206.8631 0,-310.2906 0.3463,-16.6499 -19.4391,-18.192 -25.5603,-12.0886 L 420.6681,336.9244 Z"
         style="fill:#f1ae2b;fill-rule:evenodd"
         id="path15" />
      <defs
         id="defs23">
        <linearGradient
           id="grad2">
          <stop
             offset="0%"
             stop-color="#f1ae2b"
             stop-opacity="1.0000"
             id="stop17" />
          <stop
             offset="100%"
             stop-color="#513808"
             stop-opacity="1.0000"
             id="stop19" />
        </linearGradient>
        <linearGradient
           xlink:href="#grad2"
           id="grad3"
           x1="180.2475"
           y1="128.55463"
           x2="180.2475"
           y2="501.92776"
           gradientUnits="userSpaceOnUse"
           gradientTransform="scale(1.1463883,1.47230481)" />
      </defs>
      <path
         d="m 232.1983,115.4202 c -6.1212,-6.1034 -25.9065,-4.5633 -25.5602,12.0866 0,103.4274 0,206.8631 0,310.2906 h 35.8144 V 178.3588 Z m 366.647,62.9752 V 437.834 h 35.8144 c 0,-103.4275 0,-206.8631 0,-310.2906 0.3463,-16.6498 -19.439,-18.192 -25.5602,-12.0886 z"
         style="fill:url(#grad3)"
         id="path25" />
    </g>
    <path
       d="m 128.6067,433.1768 c -3.5582,0.8212 -8.1562,1.3868 -11.8694,2.0437 -1.487,0.2645 -8.3841,1.6331 -9.8072,2.3812 -0.1096,0.1276 -0.1643,0.1915 -0.1917,0.2279 -0.0547,0.064 -0.1916,0 -0.2008,0.0275 -0.5563,-0.2647 -1.2954,0.1458 -1.8518,-0.1186 0.1733,0.6202 0.0637,0.2919 0.4288,0.6567 1.3501,1.3321 3.2843,2.5454 4.7622,3.7133 l 2.7005,2.0892 c 3.5215,2.5909 3.4029,5.4464 5.5925,8.7581 1.2497,1.8978 3.1292,3.4576 4.8262,4.9448 3.6308,3.1564 7.2437,5.1088 11.7687,7.3714 12.7723,6.3862 33.8925,8.8952 47.2943,10.5372 18.8575,2.3082 29.5773,2.5637 48.5351,2.5637 3.5032,0 6.4956,-0.2098 9.7799,-0.2098 l 7.1801,-0.219 c 2.2533,-0.1278 4.908,-0.4562 7.1798,-0.4287 l 4.7715,-0.2372 c 3.7677,-0.3104 10.7742,-0.5841 13.9856,-1.0128 1.5875,-0.219 3.0927,-0.1461 4.6893,-0.3101 2.892,-0.3101 6.2584,-0.6295 9.0136,-0.9946 6.1401,-0.8027 11.7508,-1.7059 17.1607,-3.056 9.6249,-2.4178 20.1347,-6.3773 28.3548,-11.8694 5.0905,-3.4029 6.4591,-4.6072 9.8256,-10.1632 1.5873,-2.6273 3.056,-5.1181 5.0998,-7.2984 1.2408,-1.3319 2.6273,-2.6731 3.6401,-4.1875 -0.8577,0.0182 -0.7938,0.2008 -1.3229,0.1825 -0.9946,-0.0367 -0.3833,-0.1553 -1.2682,-0.4107 -0.7571,-0.2187 -1.8063,-0.3648 -2.7187,-0.5473 l -12.7906,-2.2079 -6.2494,-0.9303 c -0.7481,-0.055 -1.9249,-0.2922 -2.6456,-0.3923 l -8.6852,-1.1039 c -3.8316,-0.3651 -7.9007,-0.8031 -11.5683,-1.259 -3.932,-0.4927 -8.019,-0.6113 -11.7413,-1.0949 -3.8408,-0.5017 -14.068,-1.1769 -17.772,-1.3594 l -18.2551,-1.0947 c -8.5849,-0.2554 -16.8597,-0.8667 -25.6635,-0.8667 -4.7897,0 0,0 -4.7897,0 h -8.6943 c -2.1806,0 -3.6583,0.228 -5.6471,0.219 -4.133,-0.0182 -7.5541,0.2372 -11.5318,0.219 -5.6562,-0.0185 -11.2397,0.5745 -16.969,0.6385 l -11.3036,0.6569 c -1.5783,-0.009 -3.932,0.3102 -5.4464,0.4288 l -13.7212,1.0674 c -0.9853,0.1004 -1.9798,0.2008 -2.8008,0.2462 -4.4429,0.2465 -8.9043,0.7756 -13.3836,1.3958 l -2.7005,0.3469 z"
       style="fill:#000000;fill-rule:evenodd"
       id="path28" />
    <path
       d="m 713.2532,433.1768 c 3.5582,0.8212 8.1562,1.3868 11.8694,2.0437 1.487,0.2645 8.3842,1.6331 9.8072,2.3812 0.1096,0.1276 0.1643,0.1915 0.1917,0.2279 0.0547,0.064 0.1916,0 0.2008,0.0275 0.5563,-0.2647 1.2954,0.1458 1.8518,-0.1186 -0.1733,0.6202 -0.0637,0.2919 -0.4288,0.6567 -1.3501,1.3321 -3.2842,2.5454 -4.7622,3.7133 l -2.7005,2.0892 c -3.5215,2.5909 -3.4029,5.4464 -5.5925,8.7581 -1.2497,1.8978 -3.1292,3.4576 -4.8261,4.9448 -3.6309,3.1564 -7.2438,5.1088 -11.7688,7.3714 -12.7723,6.3862 -33.8925,8.8952 -47.2943,10.5372 -18.8575,2.3082 -29.5773,2.5637 -48.5351,2.5637 -3.5032,0 -6.4956,-0.2098 -9.7799,-0.2098 l -7.1801,-0.219 c -2.2532,-0.1278 -4.908,-0.4562 -7.1798,-0.4287 l -4.7715,-0.2372 c -3.7677,-0.3104 -10.7742,-0.5841 -13.9855,-1.0128 -1.5876,-0.219 -3.0928,-0.1461 -4.6894,-0.3101 -2.892,-0.3101 -6.2584,-0.6295 -9.0136,-0.9946 -6.1401,-0.8027 -11.7508,-1.7059 -17.1607,-3.056 -9.6249,-2.4178 -20.1347,-6.3773 -28.3547,-11.8694 -5.0906,-3.4029 -6.4592,-4.6072 -9.8257,-10.1632 -1.5873,-2.6273 -3.056,-5.1181 -5.0998,-7.2984 -1.2407,-1.3319 -2.6273,-2.6731 -3.6401,-4.1875 0.8577,0.0182 0.7938,0.2008 1.3229,0.1825 0.9946,-0.0367 0.3833,-0.1553 1.2682,-0.4107 0.7571,-0.2187 1.8063,-0.3648 2.7187,-0.5473 l 12.7906,-2.2079 6.2494,-0.9303 c 0.7481,-0.055 1.9249,-0.2922 2.6456,-0.3923 l 8.6852,-1.1039 c 3.8316,-0.3651 7.9007,-0.8031 11.5683,-1.259 3.932,-0.4927 8.019,-0.6113 11.7413,-1.0949 3.8408,-0.5017 14.068,-1.1769 17.772,-1.3594 l 18.2552,-1.0947 c 8.5848,-0.2554 16.8596,-0.8667 25.6634,-0.8667 4.7897,0 0,0 4.7897,0 h 8.6943 c 2.1806,0 3.6583,0.228 5.6471,0.219 4.133,-0.0182 7.5542,0.2372 11.5318,0.219 5.6562,-0.0185 11.2397,0.5745 16.969,0.6385 l 11.3036,0.6569 c 1.5783,-0.009 3.932,0.3102 5.4464,0.4288 l 13.7212,1.0674 c 0.9853,0.1004 1.9798,0.2008 2.8008,0.2462 4.4429,0.2465 8.9043,0.7756 13.3836,1.3958 l 2.7005,0.3469 z"
       style="fill:#000000;fill-rule:evenodd"
       id="path30" />
  </g>
</svg>
